REM MD5 6830aa39ea95f4c380f8a3f49136fee7
FILE "Carnage Heart (USA).bin" BINARY
  TRACK 01 MODE2/2352
    INDEX 01 00:00:00
  TRACK 02 AUDIO
    INDEX 00 05:28:72
    INDEX 01 05:30:72
  TRACK 03 AUDIO
    INDEX 00 07:46:11
    INDEX 01 07:48:11
REM LEADOUT 12:18:39
